<svg xmlns="http://www.w3.org/2000/svg" viewBox="0 0 1200 630">
  <defs>
    <linearGradient id="bg" x1="0" x2="1" y1="0" y2="1">
      <stop offset="0" stop-color="#0F2E4C"/>
      <stop offset="1" stop-color="#15304d"/>
    </linearGradient>
    <pattern id="grid" width="40" height="40" patternUnits="userSpaceOnUse">
      <path d="M 40 0 L 0 0 0 40" fill="none" stroke="rgba(255,255,255,0.04)" stroke-width="1"/>
    </pattern>
  </defs>
  <rect width="1200" height="630" fill="url(#bg)"/>
  <rect width="1200" height="630" fill="url(#grid)"/>
  <g transform="translate(80,100)">
    <rect x="0" y="0" width="140" height="40" rx="20" fill="#F59E0B"/>
    <text x="70" y="27" text-anchor="middle" font-family="Inter,sans-serif" font-weight="800" font-size="20" fill="#0F2E4C">OPEN 24/7</text>
  </g>
  <text x="80" y="260" font-family="Fraunces,Georgia,serif" font-weight="900" font-size="82" fill="#fff">Sorn Handyman</text>
  <text x="80" y="340" font-family="Fraunces,Georgia,serif" font-weight="900" font-size="82" fill="#F59E0B">Services</text>
  <text x="80" y="410" font-family="Inter,sans-serif" font-weight="500" font-size="34" fill="rgba(255,255,255,0.85)">Fraser &amp; Aidan — father and son.</text>
  <text x="80" y="455" font-family="Inter,sans-serif" font-weight="500" font-size="34" fill="rgba(255,255,255,0.85)">24/7 across East Ayrshire.</text>
  <g transform="translate(80,520)">
    <rect x="0" y="0" width="340" height="66" rx="16" fill="#F59E0B"/>
    <text x="170" y="43" text-anchor="middle" font-family="Inter,sans-serif" font-weight="800" font-size="28" fill="#0F2E4C">📞  07900 255876</text>
  </g>
  <g transform="translate(940,100)" fill="#F59E0B">
    <path d="M20 0 L24 12 L36 12 L26 20 L30 32 L20 24 L10 32 L14 20 L4 12 L16 12 Z"/>
    <g transform="translate(50,0)"><path d="M20 0 L24 12 L36 12 L26 20 L30 32 L20 24 L10 32 L14 20 L4 12 L16 12 Z"/></g>
    <g transform="translate(100,0)"><path d="M20 0 L24 12 L36 12 L26 20 L30 32 L20 24 L10 32 L14 20 L4 12 L16 12 Z"/></g>
    <g transform="translate(150,0)"><path d="M20 0 L24 12 L36 12 L26 20 L30 32 L20 24 L10 32 L14 20 L4 12 L16 12 Z"/></g>
    <g transform="translate(200,0)"><path d="M20 0 L24 12 L36 12 L26 20 L30 32 L20 24 L10 32 L14 20 L4 12 L16 12 Z"/></g>
  </g>
</svg>
